<svg t="1713773911976" class="icon" viewBox="0 0 1024 1024" version="1.1" xmlns="http://www.w3.org/2000/svg" p-id="26705" width="200" height="200"><path d="M0 0m512 0l0 0q512 0 512 512l0 0q0 512-512 512l0 0q-512 0-512-512l0 0q0-512 512-512Z" fill="#F7BF00" p-id="26706"></path><path d="M512 204.8l155.8016 93.5424-55.6032 35.072-100.096-64.3072-100.3008 64.3072-53.248-35.072z" fill="#FFFFFF" p-id="26707"></path><path d="M456.3456 356.7104l56.832-35.9424 54.4768 35.9424-54.4256 33.8944zM706.7648 320.768l-55.808 34.9184 55.808 34.9184v71.424L768 425.7792v-70.144zM768 477.8496v184.4736l-155.8016 95.232v-72.2944l97.28-56.32V512z" fill="#FFFFFF" p-id="26708"></path><path d="M612.1984 568.4736l55.6032-32v70.912l-55.6032 33.024z" fill="#FFFFFF" p-id="26709"></path><path d="M667.8016 416.4096v72.192l-100.1472 56.4736v117.4016l-54.4256 36.3008-56.8832-36.352v-117.3504L355.6352 488.6528V416.4096l56.1664-35.84 101.376 62.1568 99.0208-62.1056zM456.3456 712.8064l55.7568 34.9184 55.552-34.9184v68.9664L513.2288 819.2l-56.8832-37.376zM411.8016 686.3872v71.168L256 665.088V477.8496L313.7536 512v117.248z" fill="#FFFFFF" p-id="26710"></path><path d="M411.8016 569.344v71.0656l-56.1664-35.5328v-68.4032zM256 425.5744V355.6864l54.0672-34.9184 62.1568 34.9184-58.112 35.7376v70.656z" fill="#FFFFFF" p-id="26711"></path></svg>