<!-- <svg t="1714285303341" class="icon" viewBox="0 0 1024 1024" version="1.1" xmlns="http://www.w3.org/2000/svg" p-id="6726" width="200" height="200"><path d="M992 960H64V32C64 12.8 51.2 0 32 0S0 12.8 0 32v960c0 19.2 12.8 32 32 32h960c19.2 0 32-12.8 32-32s-12.8-32-32-32z" fill="#b8add2" p-id="6727"></path><path d="M672 864H512c-19.2 0-32-12.8-32-32V224c0-19.2 12.8-32 32-32h160c19.2 0 32 12.8 32 32V832c0 19.2-12.8 32-32 32z m-128-64H640V256H544v544zM352 864H192c-19.2 0-32-12.8-32-32V352c0-12.8 12.8-32 32-32h160c19.2 0 32 19.2 32 32V832c0 19.2-12.8 32-32 32z m-128-64H320V384H224v416zM992 864H832c-19.2 0-32-12.8-32-32V32c0-19.2 12.8-32 32-32h160c19.2 0 32 12.8 32 32V832c0 19.2-12.8 32-32 32z m-128-64H960V64h-96v736z" fill="#b8add2" p-id="6728"></path></svg> -->
<svg t="1714289306484" class="icon" viewBox="0 0 1024 1024" version="1.1" xmlns="http://www.w3.org/2000/svg" p-id="80414" width="200" height="200"><path d="M398.222222 398.222222H170.666667v455.111111h227.555555V398.222222z m-56.888889 398.222222H227.555556V455.111111h113.777777v341.333333zM682.666667 227.555556H455.111111v625.777777h227.555556V227.555556z m-56.888889 568.888888H512V284.444444h113.777778v512zM739.555556 56.888889v796.444444h227.555555V56.888889h-227.555555z m170.666666 739.555555h-113.777778V113.777778h113.777778v682.666666z" fill="#7645d9" p-id="80415"></path><path d="M113.777778 56.888889H56.888889v910.222222h910.222222v-56.888889H113.777778z" fill="#7645d9" p-id="80416"></path></svg>