<svg t="1714268926979" class="icon" viewBox="0 0 1024 1024" version="1.1" xmlns="http://www.w3.org/2000/svg" p-id="1673" width="200" height="200"><path d="M0.1 336v-32c0-26.6 21.4-48 48-48h720V160c0-42.8 51.8-64 82-34l160 160c18.8 18.8 18.8 49.2 0 67.8l-160 160c-30 30-82 9-82-34v-96H48.1C21.5 384 0.1 362.6 0.1 336z m976 304H256.1v-96c0-42.6-51.8-64.2-82-34L14.1 670c-18.8 18.8-18.8 49.2 0 67.8l160 160c30 30 82 9 82-34v-96h720c26.6 0 48-21.4 48-48v-32c0-26.4-21.4-47.8-48-47.8z" p-id="1674"></path></svg>