
<svg t="1714289468611" class="icon" viewBox="0 0 1024 1024" version="1.1" xmlns="http://www.w3.org/2000/svg" p-id="84292" width="200" height="200"><path d="M460.8 537.6l-133.12 87.04 61.44 81.92 174.08-117.76V307.2H460.8z" p-id="84293" fill="#7645d9"></path><path d="M921.6 512c0 225.28-184.32 409.6-409.6 409.6s-409.6-184.32-409.6-409.6 184.32-409.6 409.6-409.6c71.68 0 138.24 20.48 199.68 56.32L614.4 256l307.2 51.2-51.2-307.2-81.92 81.92C706.56 30.72 609.28 0 512 0 230.4 0 0 230.4 0 512s230.4 512 512 512 512-230.4 512-512h-102.4z" p-id="84294" fill="#7645d9"></path></svg>