<svg t="1713519107929" class="icon" viewBox="0 0 1024 1024" version="1.1" xmlns="http://www.w3.org/2000/svg" p-id="14087" id="mx_n_1713519107930" width="200" height="200"><path d="M1016.32 47.616a21.376 21.376 0 0 0-21.845333-3.328l-981.333334 405.333333a21.333333 21.333333 0 0 0 0.426667 39.552l270.165333 104.917334c6.656 2.602667 14.122667 1.706667 19.968-2.389334l358.4-254.890666a21.333333 21.333333 0 0 1 27.178667 32.768l-298.666667 287.786666a21.248 21.248 0 0 0-6.528 15.36V960a21.333333 21.333333 0 0 0 39.722667 10.752l135.125333-231.466667a10.709333 10.709333 0 0 1 14.378667-3.968l248.576 136.533334a21.333333 21.333333 0 0 0 31.146667-14.165334l170.666666-789.333333a21.632 21.632 0 0 0-7.381333-20.736z" p-id="14088" fill="#b8add2"></path></svg>