<svg t="1713770652651" class="icon" viewBox="0 0 1024 1024" version="1.1" xmlns="http://www.w3.org/2000/svg" p-id="22389" width="200" height="200"><path d="M236.851 392.038s-34.304 179.917 93.133 274.996c62.771-112.436 164.71-137.524 164.71-137.524s60.11 183.194 162.1 208.743c88.883-39.834 198.656-137.011 218.265-212.634 14.183 107.52 71.936 237.927-232.653 397.517-86.118-70.042-166.041-185.754-172.544-228.762-13.516 116.583-9.164 207.719 31.386 248.372-87.603 14.49-276.787-65.332-332.544-221.492s68.147-329.216 68.147-329.216z" fill="#b8add2" p-id="22390"></path><path d="M791.04 327.782a30.69 30.69 0 0 0-23.142-10.547h-0.103c-8.909 0-17.357 3.943-23.193 10.701l-5.428 6.298c-11.315 13.21-20.787 24.217-29.542 33.894 4.045-24.73 4.762-51.917-1.024-80.998-16.64-83.559-80.794-159.796-196.147-233.063-8.039-5.12-18.023-6.195-26.931-2.918-8.96 3.225-15.872 10.445-18.79 19.558-0.36 1.024-36.66 111.616-159.13 214.477-140.596 118.118-201.216 197.478-188.672 355.38 13.056 164.044 158.566 332.85 379.699 332.85h2.765c10.7-0.05 20.633-5.734 26.163-14.95s5.837-20.634 0.819-30.106c-27.443-52.172-39.936-88.012-41.83-125.593 33.843 61.184 79.974 120.32 143.41 148.377 6.76 3.021 14.388 3.43 21.454 1.28 40.14-12.339 212.275-97.024 258.048-257.536 32.972-115.507-6.861-239.052-118.426-367.104z m59.34 350.31c-34.918 122.42-162.2 193.178-206.335 211.662-54.323-29.287-100.915-95.54-145.715-206.848a30.674 30.674 0 0 0-30.823-19.15 30.669 30.669 0 0 0-27.545 23.655c-20.583 88.064-22.836 141.978 10.956 221.44-158.566-21.606-260.812-148.992-270.694-273.1-10.342-129.895 34.765-192.41 166.912-303.463 92.57-77.824 140.902-159.949 162.867-206.08 188.621 132.454 143.975 238.131 113.971 309.197a980.96 980.96 0 0 0-6.144 14.745 30.761 30.761 0 0 0 8.96 35.226c10.343 8.55 25.037 9.318 36.301 2.048 49.255-32.051 71.27-53.965 104.346-91.904 79.718 101.12 107.622 196.045 82.944 282.573z" fill="#b8add2" p-id="22391"></path><path d="M429.414 330.496c-0.563 0.512-57.804 53.402-117.196 107.622-65.536 59.802-105.83 187.29-58.983 274.586a30.633 30.633 0 0 0 27.085 16.18 30.71 30.71 0 0 0 14.49-3.636c14.95-8.038 20.53-26.675 12.544-41.626-29.236-54.476-6.759-151.705 46.284-200.14 59.495-54.324 116.89-107.316 117.453-107.879a30.787 30.787 0 0 0 1.741-43.417 30.74 30.74 0 0 0-43.418-1.69z" fill="#b8add2" p-id="22392"></path></svg>