<svg t="1714959615076" class="icon" viewBox="0 0 1024 1024" version="1.1" xmlns="http://www.w3.org/2000/svg" p-id="45393" width="200" height="200"><path d="M585.6 1008.9s292.6-24.4 338.7-331.3c0-206.8-169.3-323.9-169.3-323.9s-34.8 62.5-73.6 81c0.3 2.8 104.8-279.8-242.9-419.6-0.4 5.3 15.7 74.2 14.7 103.1s-25.1 159.2-154.6 257.7S101.9 545.2 99.7 677.6s70.6 275.2 323.9 331.3c-0.2 1.6-102.9-113.7-103.1-242.9s123.6-214.8 184.1-250.3c-1.3-0.4-6.6 22.5-7.4 58.9s22.1 101.3 66.3 139.9 81.6 101 81 139.9-30.9 117.3-58.9 154.5z" fill="#7a6eaa" p-id="45394"></path></svg>