<svg t="1714289209074" class="icon" viewBox="0 0 1024 1024" version="1.1" xmlns="http://www.w3.org/2000/svg" p-id="79319" width="200" height="200"><path d="M882.176 615.424v48.64c-0.512 2.56-1.536 4.608-2.048 7.168-5.12 25.6-7.68 52.224-15.36 76.8-22.016 73.728-64 134.656-122.368 184.832-45.056 38.4-95.744 66.56-153.6 80.384-18.944 4.608-38.4 7.168-57.856 10.752h-48.64c-2.56-0.512-4.608-2.048-7.168-2.048-51.2-3.072-99.84-16.384-145.408-39.936-86.016-44.032-148.48-109.056-176.64-203.264-6.144-19.968-8.704-40.96-12.8-61.952v-46.08c2.048-11.264 3.584-23.04 5.632-34.304 9.216-49.664 31.232-93.696 60.416-134.656 27.648-38.4 56.832-75.264 82.944-114.688 28.16-42.496 41.984-89.6 33.792-141.824l-4.608-30.72c1.024-0.512 2.048-0.512 3.072-1.024 62.976 66.048 73.216 147.456 64.512 235.52 2.56-2.56 4.096-4.096 5.632-6.144 53.76-72.704 76.8-152.576 59.392-242.176C439.808 143.36 415.744 92.16 376.32 49.664 359.424 31.744 338.432 16.896 319.488 0h19.968c1.536 0.512 3.072 2.048 4.608 2.048C378.88 5.12 412.16 15.872 443.392 30.72c71.68 34.816 129.536 86.016 178.176 148.48 71.168 92.16 117.76 194.048 126.976 311.296 3.584 45.056-1.024 88.576-12.8 131.584-4.608 16.384-10.752 32.256-16.896 49.152 23.04-9.728 40.96-25.088 54.272-44.544 40.448-58.368 51.712-123.392 42.496-195.584 3.072 3.584 4.608 4.608 5.632 6.656 24.576 38.4 42.496 79.872 52.224 124.416 3.584 17.408 5.632 35.84 8.704 53.248m-346.624-62.976c-11.776 8.704-24.064 15.872-34.816 25.6-37.888 34.304-64.512 76.8-83.456 124.416-13.824 34.304-22.528 70.144-18.432 107.52 5.632 52.224 37.888 82.944 87.04 94.208 30.72 7.168 61.44 6.144 90.112-8.192 30.72-15.36 46.08-41.472 49.664-75.264 4.096-32.768-9.728-56.32-34.816-76.288-23.04-17.92-43.52-38.912-52.224-68.608-7.168-24.064-8.704-48.64-6.144-73.216 1.536-16.384 3.584-32.256 5.632-48.64-1.024 0-1.536-0.512-2.56-1.536" p-id="79320" fill="#7645d9"></path></svg>