<svg t="1714958855058" class="icon" viewBox="0 0 1024 1024" version="1.1" xmlns="http://www.w3.org/2000/svg" p-id="3265" width="200" height="200"><path d="M130.346667 554.666667c13.333333 120.64 82.56 224.426667 181.184 284.928-42.773333-75.392-70.101333-175.146667-75.776-284.928H130.346667z m0-85.333334h105.408c5.674667-109.781333 33.002667-209.536 75.776-284.928C212.906667 244.906667 143.68 348.693333 130.346667 469.333333z m763.306666 0c-13.333333-120.64-82.56-224.426667-181.184-284.928 42.773333 75.392 70.101333 175.146667 75.776 284.928h105.408z m0 85.333334h-105.386666c-5.674667 109.781333-33.002667 209.536-75.776 284.928C811.093333 779.093333 880.32 675.306667 893.653333 554.666667zM469.333333 885.632V554.666667h-148.096c9.493333 164.074667 72.938667 294.293333 148.096 330.965333zM321.237333 469.333333H469.333333V138.368C394.176 175.04 330.730667 305.258667 321.237333 469.333333zM554.666667 138.368V469.333333h148.096C693.269333 305.258667 629.824 175.04 554.666667 138.368zM702.762667 554.666667H554.666667v330.965333c75.157333-36.672 138.602667-166.890667 148.096-330.965333zM512 981.333333C252.8 981.333333 42.666667 771.2 42.666667 512S252.8 42.666667 512 42.666667s469.333333 210.133333 469.333333 469.333333-210.133333 469.333333-469.333333 469.333333z" p-id="3266" fill="#7a6eaa"></path></svg>