<svg t="1713770344120" class="icon" viewBox="0 0 1024 1024" version="1.1" xmlns="http://www.w3.org/2000/svg" p-id="13630" id="mx_n_1713770344121" width="200" height="200"><path d="M577.776 246.576L704 32s20.72-16-16-16c-34.144 0-61.84 8.384-113.136 75.264C575.52 87.6 576 83.856 576 80a64 64 0 0 0-128 0c0 4.752 0.592 9.328 1.584 13.776C394.656 21.968 365.44 16 336 16c-36.368 0-16 16-16 16l126.224 214.576C230 289.76 64 542.544 64 848h0.512C56.736 868.272 47.008 890.912 32 912c181.328 26.528 219.328 96 480 96s350.672-85.472 480-96c-14.272-24.352-23.472-41.632-32.016-64.608-0.224-305.184-166.128-557.664-382.208-600.816zM32 912c-2.64-0.384-0.752 2.032 0 0z m960 0c0.608 2.688 3.84-0.32 0 0z" fill="#C5A695" p-id="13631"></path><path d="M512 624m-240 0a240 240 0 1 0 480 0 240 240 0 1 0-480 0Z" fill="#9A7868" p-id="13632"></path><path d="M512 624m-176 0a176 176 0 1 0 352 0 176 176 0 1 0-352 0Z" fill="#FFFFFF" p-id="13633"></path><path d="M512 432c-106.032 0-192 85.952-192 192 0 106.032 85.968 192 192 192s192-85.968 192-192c0-106.048-85.968-192-192-192z m0 352c-88.352 0-160-71.648-160-160s71.648-160 160-160 160 71.648 160 160-71.648 160-160 160z m464 32c0-252.816-160.112-517.904-372.56-578.912L735.04 19.392l0.96-1.424C720.768 6.64 699.872 0.016 680.064 0.016 645.52 0.016 608.672 17.888 592 48c-16.672-30.112-45.456-48-80-48s-63.328 17.888-80 48C415.328 17.888 378.128 0.016 343.584 0.016c-19.664 0-40.416 7.52-55.6 18.688l0.96 1.68 131.6 216.704C208.08 298.128 48 563.2 48 816c0 48.368-48 112-48 112s60.48 4.96 112 16a577.568 577.568 0 0 1 89.216 27.12C283.424 1004.176 392.24 1024 512 1024s228.576-19.824 310.784-52.88c0 0 40.864-16.768 89.216-27.12 52.128-11.168 112-16 112-16s-48-77.632-48-112zM336 32c52.176 0 96 62 96 80 0 15.008 8.656 16 16 16 7.824 0 16-3.776 16-16-0.032-0.752 0-26.736 0-27.504C464 53.584 481.072 32 512 32c32.304 0 48 22.944 48 64 0 30.064 0.992 32 16 32 11.008 0 16-2.304 16-16 0-14.096 41.392-80 96-80l-121.136 196.848C548.864 225.776 530.576 224 512 224s-36.864 1.776-54.864 4.848L336 32z m576 880c-31.792 6.864-66.688 17.344-88.96 24.416C744.464 968.704 634.288 992 512 992c-123.456 0-234.512-22.528-313.232-54.752C171.968 930.176 145.024 919.136 112 912c-22.256-4.816-59.008-6-59.008-6S80 864.784 80 832c0-270.032 147.44-507.568 343.648-563.536 2.416-0.608 4.832-1.12 7.264-1.856A320 320 0 0 1 512 256c21.168 0 41.952 2.208 62.304 6.24a146.608 146.608 0 0 0 33.408 8.56C800.208 330.544 944 565.376 944 832c0 32.56 27.008 70 27.008 70S934.256 907.184 912 912zM512 368c-141.392 0-256 114.608-256 256s114.608 256 256 256c141.376 0 256-114.608 256-256s-114.624-256-256-256z m0 480c-123.712 0-224-100.304-224-224 0-123.712 100.288-224 224-224 123.696 0 224 100.288 224 224 0 123.696-100.304 224-224 224z m14.896-241.344l-22.96-5.856c-22.288-6.928-26.512-13.76-26.512-23.984 0-12.096 9.504-19.872 26.048-21.36 0.064-0.016 2.464-0.256 6.112-0.256 4.128 0 10.272 0.32 16.16 1.856a130.56 130.56 0 0 1 29.536 12.096c3.28 1.872 6.624 2.832 9.936 2.832 10.432 0 18.624-7.712 18.624-17.568 0-6.528-3.424-11.808-9.808-15.264-13.456-8.128-30.4-13.568-46.016-15.744V512a16 16 0 1 0-32 0v11.936c-35.104 4.672-57.568 25.648-57.568 54.848 0 31.072 18.592 48.384 64.272 59.776l22.96 5.28c22.88 6.832 27.36 14.16 27.36 24.528 0 12.496-9.568 20.4-26.864 22.208-0.048 0-2.352 0.176-5.952 0.176-4.288 0-10.32-0.24-16.592-1.264-12.192-2.016-29.616-9.568-42.256-18.336a18.688 18.688 0 0 0-11.008-3.552c-10.304 0-18.336 7.712-18.336 17.568 0 6.352 3.072 11.632 8.848 15.2a132.064 132.064 0 0 0 55.152 21.328V736a16 16 0 1 0 32 0v-13.072c37.76-4.192 64-26.176 64-56.496-0.032-30.976-19.52-48.864-65.136-59.776z" fill="#2B3139" p-id="13634"></path><path d="M640 192H384a32 32 0 0 0 0 64h256a32 32 0 0 0 0-64z" fill="#F5EAC9" p-id="13635"></path><path d="M640 176H384a48 48 0 1 0 0 96h256a48 48 0 0 0 0-96z m-112 32h48v32h-48v-32z m-32 32h-48v-32h48v32z m-128-16a16 16 0 0 1 16-16h32v32h-32a16 16 0 0 1-16-16z m272 16h-32v-32h32a16 16 0 1 1 0 32z" fill="#2B3139" p-id="13636"></path></svg>