<svg t="1713517462271" class="icon" viewBox="0 0 1024 1024" version="1.1" xmlns="http://www.w3.org/2000/svg" p-id="11778" width="200" height="200"><path d="M204.8 1023.931733a204.8 204.8 0 0 1-204.8-204.8v-614.4a204.8 204.8 0 0 1 204.8-204.8h136.533333a68.266667 68.266667 0 1 1 0 136.533334H204.8a68.266667 68.266667 0 0 0-68.266667 68.266666v614.4a68.266667 68.266667 0 0 0 68.266667 68.266667h614.4a68.266667 68.266667 0 0 0 68.266667-68.266667v-136.533333a68.266667 68.266667 0 0 1 136.533333 0v136.533333a204.8 204.8 0 0 1-204.8 204.8z m88.2688-292.864a68.266667 68.266667 0 0 1 0-96.6656l497.8688-497.595733H614.4a68.266667 68.266667 0 0 1 0-136.533333h341.333333a68.266667 68.266667 0 0 1 68.266667 68.266666v341.333334a68.266667 68.266667 0 0 1-136.533333 0V233.198933l-497.8688 498.346667a68.744533 68.744533 0 0 1-96.529067 0z" fill="#303133" p-id="11779"></path></svg>